<svg xmlns="http://www.w3.org/2000/svg" xmlns:xlink="http://www.w3.org/1999/xlink" width="500" zoomAndPan="magnify" viewBox="0 0 375 374.999991" height="500" preserveAspectRatio="xMidYMid meet" version="1.0"><defs><g/><clipPath id="5b8a00d279"><path d="M 255 67 L 270.265625 67 L 270.265625 101 L 255 101 Z M 255 67 " clip-rule="nonzero"/></clipPath><clipPath id="239802c5a6"><path d="M 219 52.5625 L 235 52.5625 L 235 86 L 219 86 Z M 219 52.5625 " clip-rule="nonzero"/></clipPath><clipPath id="f81cfe4f73"><path d="M 104.515625 86 L 228 86 L 228 204 L 104.515625 204 Z M 104.515625 86 " clip-rule="nonzero"/></clipPath><clipPath id="8b84db43f5"><path d="M 167 177 L 186 177 L 186 219.0625 L 167 219.0625 Z M 167 177 " clip-rule="nonzero"/></clipPath></defs><path fill="#ed5b2d" d="M 247.925781 108.261719 L 247.972656 108.234375 C 248.65625 107.882812 249.339844 107.632812 250.011719 107.472656 C 250.125 107.449219 250.234375 107.425781 250.347656 107.402344 L 244.074219 95.613281 L 235.984375 102.671875 L 245.121094 119.847656 L 245.121094 119.898438 C 245.644531 121.125 245.480469 122.535156 244.769531 123.835938 C 244.121094 125.03125 242.996094 126.144531 241.53125 126.910156 L 241.535156 126.910156 C 241.503906 126.929688 241.460938 126.949219 241.402344 126.980469 C 239.914062 127.75 238.332031 128.027344 236.96875 127.851562 C 235.476562 127.660156 234.230469 126.9375 233.578125 125.722656 L 233.542969 125.652344 C 232.894531 124.425781 232.988281 122.96875 233.671875 121.613281 C 234.296875 120.375 235.429688 119.203125 236.921875 118.402344 L 236.925781 118.402344 L 236.984375 118.367188 C 237.644531 118.015625 238.328125 117.761719 239.003906 117.601562 C 239.128906 117.570312 239.25 117.542969 239.371094 117.523438 L 231.054688 101.855469 L 231.617188 101.269531 L 231.6875 101.203125 L 242.816406 91.5 L 245.261719 89.386719 L 246.761719 92.179688 L 246.765625 92.183594 L 256.101562 109.722656 L 256.101562 109.765625 C 256.625 110.992188 256.464844 112.398438 255.757812 113.703125 C 255.109375 114.898438 253.980469 116.019531 252.515625 116.808594 L 252.507812 116.8125 C 250.988281 117.613281 249.375 117.910156 247.988281 117.738281 C 246.472656 117.546875 245.207031 116.808594 244.539062 115.566406 L 244.53125 115.558594 L 244.527344 115.546875 L 244.527344 115.542969 C 243.871094 114.300781 243.964844 112.839844 244.652344 111.480469 C 245.277344 110.234375 246.417969 109.066406 247.921875 108.261719 L 247.925781 108.257812 Z M 247.925781 108.261719 " fill-opacity="1" fill-rule="evenodd"/><g clip-path="url(#5b8a00d279)"><path fill="#291b25" d="M 262.335938 87.40625 L 262.363281 87.003906 C 262.363281 86.996094 262.363281 86.984375 262.367188 86.976562 C 262.351562 86.988281 262.335938 86.996094 262.3125 87.003906 C 262.257812 87.027344 262.199219 87.050781 262.140625 87.082031 C 261.753906 87.273438 261.492188 87.550781 261.378906 87.882812 C 261.257812 88.242188 261.28125 88.6875 261.472656 89.175781 C 261.503906 89.257812 261.542969 89.347656 261.589844 89.441406 C 261.601562 89.460938 261.617188 89.484375 261.644531 89.523438 L 261.640625 89.527344 C 261.953125 90.035156 262.292969 90.582031 261.5 91.21875 L 261.480469 91.234375 C 261.433594 91.273438 261.382812 91.304688 261.332031 91.332031 L 261.429688 91.359375 L 261.429688 91.355469 C 261.492188 91.371094 261.582031 91.394531 261.671875 91.421875 C 261.742188 91.4375 261.808594 91.457031 261.851562 91.464844 L 261.851562 91.460938 C 262.136719 91.5 262.089844 91.679688 262.175781 91.601562 C 262.25 91.535156 262.105469 91.511719 262.125 91.203125 L 262.128906 91.203125 C 262.171875 89.894531 262.253906 88.652344 262.335938 87.40625 Z M 258.636719 89.492188 C 258.726562 89.621094 258.824219 89.75 258.933594 89.875 C 258.75 89.488281 258.621094 89.074219 258.550781 88.648438 C 258.421875 87.820312 258.515625 86.945312 258.878906 86.179688 L 258.878906 86.171875 C 259.257812 85.394531 259.769531 84.777344 260.394531 84.292969 C 261.007812 83.816406 261.722656 83.480469 262.511719 83.261719 L 262.523438 83.257812 C 262.515625 83.027344 262.523438 82.800781 262.535156 82.582031 L 262.539062 82.546875 C 262.253906 82.6875 261.972656 82.828125 261.691406 82.972656 C 261.246094 83.207031 260.792969 83.460938 260.335938 83.746094 L 260.335938 83.742188 C 259.78125 84.09375 259.3125 84.519531 258.941406 85.011719 C 258.570312 85.503906 258.289062 86.070312 258.109375 86.703125 C 258.089844 86.773438 258.078125 86.8125 258.078125 86.824219 C 257.855469 87.738281 258.085938 88.691406 258.636719 89.492188 Z M 262.484375 86.828125 C 262.445312 86.796875 262.453125 86.835938 262.4375 86.886719 C 262.484375 86.859375 262.535156 86.863281 262.484375 86.828125 Z M 265.144531 76.757812 C 265.164062 76.769531 265.179688 76.773438 265.1875 76.769531 C 265.074219 76.71875 264.996094 76.679688 265.144531 76.757812 Z M 265.558594 76.15625 L 265.558594 76.164062 C 266.234375 75.652344 266.8125 75.097656 267.179688 74.460938 C 267.523438 73.859375 267.691406 73.160156 267.578125 72.316406 L 267.574219 72.304688 C 267.566406 72.226562 267.558594 72.144531 267.550781 72.058594 C 267.542969 71.945312 267.703125 71.875 267.644531 71.839844 C 267.621094 71.835938 267.503906 71.996094 267.359375 72.132812 L 267.355469 72.132812 C 267.230469 72.253906 267.433594 72.066406 267.265625 72.222656 C 266.855469 72.617188 266.535156 73.0625 266.292969 73.546875 C 266.039062 74.046875 265.859375 74.597656 265.734375 75.179688 C 265.722656 75.242188 265.695312 75.367188 265.664062 75.492188 C 265.613281 75.722656 265.558594 75.957031 265.558594 76.15625 Z M 264.347656 87.105469 L 264.34375 87.105469 Z M 265.480469 88.097656 C 265.328125 87.796875 265.082031 87.535156 264.757812 87.324219 C 264.726562 87.964844 264.695312 88.578125 264.664062 89.175781 C 264.628906 89.753906 264.597656 90.3125 264.566406 90.863281 C 264.71875 90.777344 264.867188 90.664062 265 90.539062 C 265.304688 90.257812 265.527344 89.90625 265.609375 89.550781 L 265.613281 89.542969 C 265.742188 89.003906 265.691406 88.507812 265.480469 88.101562 Z M 259.023438 79.984375 C 260.050781 79.160156 261.210938 78.496094 262.445312 77.933594 C 262.628906 77.847656 262.746094 77.777344 262.792969 77.707031 C 262.835938 77.640625 262.851562 77.519531 262.851562 77.320312 L 262.855469 77.320312 C 262.832031 75.671875 263.039062 74.09375 263.527344 72.609375 C 264.023438 71.101562 264.804688 69.695312 265.921875 68.414062 C 266.003906 68.3125 266.039062 68.269531 266.074219 68.222656 C 266.574219 67.582031 267.152344 66.84375 268.21875 67.089844 C 269.277344 67.328125 269.527344 68.214844 269.75 68.996094 L 269.808594 69.207031 C 270.09375 70.089844 270.25 71.117188 270.261719 72.171875 C 270.277344 73.1875 270.15625 74.230469 269.898438 75.1875 C 269.613281 76.359375 269.085938 77.433594 268.351562 78.390625 C 267.605469 79.355469 266.648438 80.195312 265.515625 80.894531 C 265.3125 81.019531 265.164062 81.140625 265.085938 81.265625 C 265.035156 81.347656 265.015625 81.457031 265.035156 81.609375 C 265.066406 81.800781 265.042969 81.9375 265.019531 82.070312 L 265.015625 82.070312 C 265.015625 82.09375 265.011719 82.121094 265.011719 82.144531 C 264.949219 82.761719 264.917969 83.066406 264.941406 83.117188 C 264.960938 83.148438 265.21875 83.253906 265.734375 83.46875 L 265.761719 83.480469 C 266.753906 83.890625 267.53125 84.484375 268.082031 85.253906 C 268.636719 86.023438 268.957031 86.953125 269.023438 88.011719 C 269.109375 89.207031 268.796875 90.1875 268.226562 91.023438 C 267.683594 91.820312 266.914062 92.457031 266.039062 93 C 265.8125 93.144531 265.558594 93.269531 265.289062 93.378906 C 265.027344 93.484375 264.753906 93.570312 264.492188 93.625 C 264.433594 93.636719 264.445312 93.585938 264.429688 93.609375 C 264.429688 93.613281 264.433594 93.664062 264.433594 93.769531 C 264.433594 94.394531 264.386719 95.019531 264.269531 95.640625 C 264.148438 96.269531 263.949219 96.890625 263.636719 97.496094 C 263.566406 97.632812 263.492188 97.761719 263.414062 97.886719 C 262.785156 98.863281 261.84375 99.554688 260.816406 99.875 C 259.773438 100.203125 258.636719 100.148438 257.644531 99.640625 C 257.542969 99.585938 257.441406 99.527344 257.34375 99.464844 L 257.339844 99.46875 C 256.714844 99.082031 256.238281 98.550781 255.957031 97.953125 C 255.664062 97.332031 255.578125 96.644531 255.742188 95.972656 L 255.742188 95.96875 C 255.882812 95.390625 256.15625 94.90625 256.535156 94.535156 C 256.921875 94.152344 257.414062 93.902344 257.980469 93.808594 C 258.523438 93.71875 258.996094 93.785156 259.410156 93.976562 C 259.847656 94.179688 260.195312 94.519531 260.457031 94.960938 L 260.460938 94.972656 C 260.761719 95.5 260.855469 96.023438 260.800781 96.546875 C 260.769531 96.828125 260.699219 97.105469 260.59375 97.371094 C 260.777344 97.25 260.941406 97.113281 261.082031 96.957031 C 261.328125 96.6875 261.507812 96.359375 261.605469 95.964844 L 261.609375 95.949219 C 261.683594 95.671875 261.753906 95.402344 261.804688 95.175781 C 261.863281 94.925781 261.910156 94.679688 261.941406 94.441406 L 261.941406 94.433594 C 261.988281 94.101562 262.195312 94.070312 262.097656 94.054688 C 262.003906 94.042969 261.8125 94.027344 261.574219 94.003906 L 261.570312 94.003906 C 260.589844 93.921875 259.683594 93.617188 258.882812 93.148438 C 257.695312 92.453125 256.753906 91.398438 256.140625 90.160156 C 255.527344 88.929688 255.242188 87.519531 255.367188 86.109375 C 255.457031 85.070312 255.773438 84.023438 256.347656 83.046875 L 256.347656 83.042969 C 257.066406 81.820312 257.976562 80.820312 259.023438 79.984375 Z M 265.015625 82.0625 L 265.015625 82.070312 L 265.019531 82.070312 C 265.019531 82.070312 265.015625 82.050781 265.015625 82.0625 Z M 265.015625 82.0625 " fill-opacity="1" fill-rule="evenodd"/></g><path fill="#291b25" d="M 188.378906 73.230469 L 188.335938 73.203125 C 187.648438 72.855469 186.964844 72.601562 186.292969 72.441406 C 186.179688 72.417969 186.070312 72.394531 185.960938 72.371094 L 192.230469 60.585938 L 200.324219 67.640625 L 191.183594 84.820312 L 191.183594 84.867188 C 190.660156 86.09375 190.824219 87.507812 191.535156 88.808594 C 192.183594 90 193.308594 91.113281 194.773438 91.878906 L 194.769531 91.878906 C 194.800781 91.898438 194.84375 91.917969 194.902344 91.949219 C 196.390625 92.71875 197.972656 92.996094 199.335938 92.820312 C 200.828125 92.628906 202.074219 91.90625 202.726562 90.691406 L 202.757812 90.628906 L 202.761719 90.625 C 203.414062 89.394531 203.316406 87.9375 202.632812 86.582031 C 202.007812 85.34375 200.875 84.175781 199.382812 83.371094 L 199.378906 83.371094 L 199.320312 83.339844 C 198.660156 82.988281 197.976562 82.730469 197.300781 82.570312 C 197.175781 82.539062 197.054688 82.515625 196.933594 82.492188 L 205.25 66.824219 L 204.6875 66.238281 L 204.617188 66.171875 L 193.488281 56.46875 L 191.042969 54.355469 L 189.542969 57.148438 L 189.539062 57.152344 L 180.207031 74.691406 L 180.207031 74.734375 C 179.679688 75.964844 179.839844 77.371094 180.546875 78.671875 C 181.199219 79.867188 182.324219 80.992188 183.789062 81.777344 L 183.796875 81.78125 C 185.320312 82.582031 186.929688 82.878906 188.316406 82.707031 C 189.832031 82.515625 191.097656 81.777344 191.769531 80.535156 L 191.773438 80.53125 L 191.777344 80.515625 L 191.777344 80.511719 C 192.433594 79.269531 192.339844 77.808594 191.65625 76.449219 C 191.027344 75.207031 189.886719 74.035156 188.382812 73.230469 L 188.378906 73.226562 Z M 188.378906 73.230469 " fill-opacity="1" fill-rule="evenodd"/><g clip-path="url(#239802c5a6)"><path fill="#ed5b2d" d="M 227.074219 72.964844 L 227.046875 72.5625 C 227.046875 72.554688 227.042969 72.542969 227.042969 72.535156 C 227.054688 72.546875 227.074219 72.554688 227.09375 72.5625 C 227.152344 72.585938 227.210938 72.609375 227.269531 72.640625 C 227.65625 72.832031 227.914062 73.109375 228.027344 73.441406 C 228.152344 73.800781 228.125 74.246094 227.9375 74.734375 C 227.902344 74.816406 227.863281 74.90625 227.816406 75 C 227.808594 75.019531 227.789062 75.042969 227.765625 75.085938 C 227.453125 75.59375 227.117188 76.144531 227.910156 76.777344 L 227.925781 76.792969 C 227.976562 76.832031 228.027344 76.863281 228.074219 76.890625 L 227.980469 76.917969 L 227.980469 76.914062 C 227.917969 76.929688 227.828125 76.953125 227.738281 76.980469 C 227.667969 76.996094 227.597656 77.015625 227.558594 77.023438 C 227.273438 77.058594 227.320312 77.238281 227.234375 77.160156 C 227.15625 77.09375 227.304688 77.070312 227.28125 76.761719 C 227.234375 75.453125 227.15625 74.210938 227.074219 72.964844 Z M 230.773438 75.050781 C 230.683594 75.183594 230.582031 75.308594 230.476562 75.433594 C 230.660156 75.046875 230.789062 74.632812 230.855469 74.207031 C 230.988281 73.378906 230.890625 72.503906 230.53125 71.738281 L 230.527344 71.730469 C 230.152344 70.953125 229.640625 70.335938 229.011719 69.851562 C 228.398438 69.375 227.683594 69.039062 226.898438 68.820312 L 226.882812 68.816406 C 226.890625 68.585938 226.886719 68.359375 226.871094 68.140625 L 226.871094 68.105469 C 227.152344 68.246094 227.4375 68.386719 227.71875 68.53125 C 228.164062 68.765625 228.613281 69.019531 229.070312 69.304688 L 229.070312 69.300781 C 229.628906 69.652344 230.09375 70.078125 230.46875 70.570312 C 230.839844 71.0625 231.117188 71.628906 231.300781 72.261719 L 231.296875 72.261719 C 231.316406 72.332031 231.328125 72.371094 231.332031 72.382812 C 231.550781 73.296875 231.324219 74.25 230.769531 75.050781 Z M 226.921875 72.386719 C 226.964844 72.355469 226.953125 72.394531 226.972656 72.445312 C 226.921875 72.417969 226.875 72.421875 226.921875 72.386719 Z M 224.265625 62.316406 C 224.242188 62.328125 224.230469 62.332031 224.21875 62.328125 C 224.332031 62.277344 224.414062 62.238281 224.265625 62.316406 Z M 223.847656 61.714844 L 223.847656 61.722656 C 223.175781 61.214844 222.59375 60.65625 222.230469 60.019531 C 221.882812 59.417969 221.71875 58.71875 221.832031 57.875 L 221.835938 57.863281 C 221.84375 57.785156 221.851562 57.703125 221.859375 57.617188 C 221.867188 57.503906 221.707031 57.433594 221.765625 57.398438 C 221.785156 57.394531 221.902344 57.554688 222.046875 57.691406 L 222.050781 57.691406 C 222.175781 57.8125 221.972656 57.625 222.144531 57.78125 C 222.554688 58.175781 222.871094 58.621094 223.117188 59.105469 C 223.367188 59.605469 223.546875 60.15625 223.675781 60.738281 C 223.6875 60.800781 223.714844 60.925781 223.742188 61.050781 C 223.796875 61.28125 223.847656 61.515625 223.847656 61.714844 Z M 225.0625 72.664062 L 225.0625 72.667969 L 225.058594 72.664062 Z M 223.929688 73.65625 C 224.082031 73.355469 224.324219 73.09375 224.648438 72.882812 C 224.679688 73.523438 224.714844 74.136719 224.746094 74.734375 C 224.777344 75.3125 224.808594 75.871094 224.84375 76.421875 C 224.6875 76.335938 224.542969 76.222656 224.40625 76.097656 C 224.105469 75.816406 223.882812 75.46875 223.800781 75.109375 L 223.796875 75.101562 C 223.664062 74.5625 223.71875 74.066406 223.925781 73.660156 L 223.925781 73.65625 Z M 230.382812 65.542969 C 229.355469 64.71875 228.199219 64.054688 226.964844 63.492188 C 226.777344 63.40625 226.664062 63.335938 226.617188 63.265625 C 226.574219 63.199219 226.554688 63.078125 226.554688 62.878906 L 226.550781 62.878906 C 226.574219 61.230469 226.367188 59.652344 225.882812 58.167969 C 225.386719 56.660156 224.605469 55.253906 223.488281 53.972656 C 223.402344 53.871094 223.367188 53.828125 223.335938 53.78125 C 222.832031 53.140625 222.257812 52.402344 221.1875 52.648438 C 220.132812 52.886719 219.878906 53.773438 219.65625 54.554688 L 219.597656 54.765625 C 219.3125 55.648438 219.160156 56.675781 219.144531 57.730469 C 219.132812 58.746094 219.25 59.789062 219.511719 60.746094 C 219.792969 61.917969 220.324219 62.992188 221.058594 63.949219 C 221.804688 64.914062 222.761719 65.753906 223.890625 66.453125 C 224.09375 66.578125 224.242188 66.699219 224.320312 66.824219 C 224.371094 66.90625 224.390625 67.015625 224.375 67.167969 C 224.339844 67.359375 224.367188 67.496094 224.390625 67.628906 C 224.394531 67.652344 224.398438 67.679688 224.398438 67.703125 C 224.460938 68.320312 224.492188 68.625 224.464844 68.675781 C 224.449219 68.707031 224.1875 68.8125 223.675781 69.027344 L 223.648438 69.039062 C 222.652344 69.449219 221.878906 70.046875 221.324219 70.8125 C 220.769531 71.582031 220.453125 72.511719 220.382812 73.570312 C 220.300781 74.765625 220.613281 75.746094 221.183594 76.582031 C 221.726562 77.378906 222.496094 78.015625 223.367188 78.558594 C 223.59375 78.703125 223.851562 78.828125 224.117188 78.9375 C 224.382812 79.042969 224.652344 79.128906 224.917969 79.183594 C 224.976562 79.195312 224.960938 79.144531 224.980469 79.167969 C 224.980469 79.171875 224.976562 79.222656 224.976562 79.328125 C 224.976562 79.953125 225.019531 80.578125 225.140625 81.199219 C 225.261719 81.828125 225.460938 82.449219 225.769531 83.054688 C 225.839844 83.191406 225.914062 83.320312 225.996094 83.445312 C 226.621094 84.421875 227.566406 85.113281 228.589844 85.433594 C 229.636719 85.761719 230.773438 85.707031 231.761719 85.199219 C 231.867188 85.144531 231.96875 85.085938 232.066406 85.023438 L 232.066406 85.027344 C 232.695312 84.640625 233.167969 84.109375 233.453125 83.511719 C 233.746094 82.890625 233.828125 82.203125 233.667969 81.53125 L 233.667969 81.527344 C 233.527344 80.949219 233.253906 80.464844 232.875 80.09375 C 232.484375 79.710938 231.992188 79.460938 231.429688 79.367188 C 230.886719 79.277344 230.410156 79.34375 230 79.535156 C 229.558594 79.738281 229.214844 80.078125 228.953125 80.519531 L 228.945312 80.53125 C 228.644531 81.058594 228.554688 81.582031 228.609375 82.105469 C 228.640625 82.386719 228.710938 82.664062 228.816406 82.929688 C 228.628906 82.808594 228.464844 82.671875 228.324219 82.515625 C 228.078125 82.246094 227.898438 81.917969 227.804688 81.523438 L 227.800781 81.507812 C 227.726562 81.230469 227.652344 80.960938 227.601562 80.734375 C 227.542969 80.484375 227.496094 80.238281 227.464844 80 L 227.464844 79.992188 C 227.421875 79.660156 227.214844 79.628906 227.3125 79.613281 C 227.402344 79.601562 227.597656 79.585938 227.832031 79.5625 L 227.839844 79.5625 C 228.820312 79.480469 229.722656 79.175781 230.523438 78.707031 C 231.710938 78.011719 232.65625 76.957031 233.269531 75.71875 C 233.878906 74.488281 234.164062 73.078125 234.042969 71.667969 C 233.953125 70.628906 233.636719 69.582031 233.0625 68.605469 L 233.0625 68.601562 C 232.339844 67.378906 231.429688 66.378906 230.382812 65.542969 Z M 224.390625 67.621094 L 224.390625 67.628906 C 224.390625 67.628906 224.390625 67.613281 224.390625 67.621094 Z M 224.390625 67.621094 " fill-opacity="1" fill-rule="evenodd"/></g><g clip-path="url(#f81cfe4f73)"><path fill="#291b25" d="M 162.597656 121.835938 C 162.246094 120.929688 161.585938 119.621094 160.039062 118.753906 C 158.652344 117.984375 156.660156 117.648438 153.789062 118.585938 C 152.632812 118.953125 151.382812 119.679688 150.097656 120.707031 L 150.152344 106.03125 L 145.269531 106.015625 L 145.191406 125.886719 C 143.863281 127.671875 142.59375 129.722656 141.476562 131.949219 L 140.324219 134.332031 C 137.941406 139.285156 135.925781 143.507812 130.203125 145.894531 C 129.085938 146.367188 127.820312 146.851562 126.511719 147.34375 C 122.464844 148.882812 118.105469 150.542969 114.242188 153.304688 C 113.613281 150.082031 113.28125 146.75 113.28125 143.347656 C 113.28125 136.457031 114.632812 129.878906 117.089844 123.867188 L 117.089844 138.136719 L 121.976562 138.136719 L 121.976562 94.464844 L 117.089844 94.464844 L 117.089844 113.207031 C 111.582031 121.933594 108.398438 132.269531 108.398438 143.351562 C 108.398438 148.066406 108.960938 152.652344 110.058594 157.035156 C 108.707031 158.546875 107.5 160.304688 106.460938 162.363281 C 103.6875 167.9375 104.039062 174.332031 106.5 180.402344 C 108.125 184.445312 110.703125 188.347656 113.90625 191.753906 C 117.109375 195.152344 120.921875 198.054688 125.042969 200.109375 C 131.964844 203.542969 139.738281 204.628906 146.949219 201.710938 C 148.84375 200.949219 150.503906 199.816406 151.953125 198.441406 C 154.238281 198.980469 156.601562 199.386719 159.003906 199.640625 L 159.003906 194.722656 C 157.792969 194.585938 156.601562 194.398438 155.429688 194.175781 C 158.867188 188.855469 160.644531 182.363281 161.640625 178.6875 C 161.835938 177.925781 162.011719 177.289062 162.109375 176.976562 C 162.246094 176.535156 162.484375 176.09375 162.773438 175.671875 L 167.679688 171.804688 C 168.890625 171.15625 170.125 170.632812 171.179688 170.230469 C 173.367188 169.441406 175.632812 168.125 177.472656 166.609375 C 179.324219 165.066406 180.832031 163.261719 181.492188 161.496094 C 181.769531 160.753906 182.003906 159.972656 182.160156 159.199219 C 182.414062 157.902344 182.472656 156.625 182.21875 155.507812 C 181.867188 153.980469 181.003906 152.785156 179.464844 152.203125 C 179.246094 152.125 179.015625 152.058594 178.738281 152.007812 C 176.804688 151.605469 175.324219 152.652344 173.621094 153.851562 C 172.347656 154.761719 170.84375 155.800781 169.636719 155.5625 C 169.03125 155.433594 168.5 155.148438 168.105469 154.769531 C 167.949219 154.613281 167.796875 154.445312 167.679688 154.253906 C 167.5 154 167.367188 153.714844 167.289062 153.414062 C 167.132812 152.90625 167.113281 152.359375 167.230469 151.820312 C 167.304688 151.453125 167.441406 151.089844 167.679688 150.761719 C 167.777344 150.605469 167.890625 150.457031 168.03125 150.308594 L 204.214844 112.847656 C 204.746094 112.320312 205.292969 111.96875 205.757812 111.96875 C 205.914062 111.96875 206.109375 112.019531 206.328125 112.125 C 212.914062 120.804688 216.820312 131.617188 216.820312 143.351562 C 216.820312 157.628906 211.039062 170.566406 201.660156 179.925781 C 197.949219 183.625 193.6875 186.773438 188.996094 189.226562 L 188.996094 194.675781 C 195.015625 191.867188 200.46875 188.023438 205.117188 183.378906 C 215.378906 173.132812 221.726562 158.988281 221.726562 143.351562 C 221.726562 131.582031 218.113281 120.636719 211.957031 111.578125 C 213.679688 109.792969 216.507812 106.480469 217.269531 103.332031 L 217.269531 103.320312 L 217.488281 102.421875 C 217.601562 101.933594 217.71875 101.503906 217.835938 101.074219 C 219.441406 101.464844 221.375 101.367188 223.054688 100.652344 C 224.929688 99.867188 226.515625 98.371094 227.175781 95.996094 L 227.175781 95.96875 L 227.195312 95.890625 L 227.195312 95.882812 C 227.292969 95.492188 227.375 95.082031 227.390625 94.679688 C 227.488281 93.273438 227.136719 91.625 226.335938 90.222656 C 225.480469 88.714844 224.109375 87.457031 222.195312 86.960938 C 221.765625 86.855469 221.351562 86.785156 220.902344 86.746094 C 216.253906 86.453125 202.539062 95.011719 198.472656 97.628906 C 190.734375 91.96875 181.492188 88.21875 171.472656 87.097656 L 171.472656 92.015625 C 179.816406 93.050781 187.550781 96.066406 194.175781 100.578125 C 193.375 101.472656 193.296875 102.558594 194.078125 104.636719 C 194.234375 105.046875 191.96875 107.277344 191.96875 107.28125 L 167.683594 130.628906 L 162.777344 135.328125 L 162.292969 135.8125 L 162.132812 135.949219 C 161.722656 136.273438 161.214844 136.421875 160.726562 136.398438 C 160.257812 136.371094 159.808594 136.199219 159.496094 135.851562 L 159.378906 135.726562 L 159.339844 135.667969 C 158.402344 134.457031 158.125 133.21875 158.363281 131.96875 C 158.636719 130.476562 159.59375 128.855469 161.058594 127.101562 L 161.273438 126.839844 C 161.957031 126.035156 162.503906 125.394531 162.777344 124.667969 L 162.777344 122.363281 C 162.738281 122.199219 162.679688 122.027344 162.601562 121.835938 Z M 155.292969 123.222656 C 156.617188 122.792969 157.324219 122.8125 157.65625 123.007812 C 157.851562 123.113281 157.96875 123.386719 158.046875 123.59375 C 158.183594 123.933594 157.773438 123.417969 157.558594 123.683594 L 157.320312 123.964844 L 157.304688 123.976562 C 155.328125 126.335938 154 128.707031 153.570312 131.089844 C 153.082031 133.707031 153.628906 136.226562 155.449219 138.625 L 155.464844 138.636719 L 155.523438 138.703125 L 155.523438 138.710938 C 155.679688 138.910156 155.8125 139.085938 155.972656 139.230469 C 157.203125 140.507812 158.804688 141.171875 160.46875 141.265625 C 161.246094 141.300781 162.03125 141.210938 162.773438 140.988281 C 163.613281 140.746094 164.414062 140.34375 165.121094 139.789062 C 165.335938 139.640625 165.507812 139.476562 165.664062 139.328125 L 167.679688 137.394531 L 195.386719 110.769531 L 195.425781 110.738281 C 195.445312 110.730469 198.945312 107.347656 198.882812 104.1875 C 198.882812 103.757812 198.804688 103.332031 198.652344 102.917969 C 198.53125 102.617188 198.90625 103.136719 199.273438 102.910156 L 199.960938 102.480469 L 200.015625 102.460938 C 200.015625 102.453125 200.996094 101.816406 202.5 100.863281 C 207.328125 97.792969 217.71875 91.441406 220.613281 91.625 C 220.730469 91.625 220.867188 91.644531 220.964844 91.675781 C 221.449219 91.800781 221.839844 92.171875 222.09375 92.628906 C 222.410156 93.1875 222.546875 93.832031 222.53125 94.367188 L 222.488281 94.652344 L 222.445312 94.730469 C 222.25 95.449219 221.742188 95.921875 221.160156 96.164062 C 220.457031 96.46875 219.617188 96.507812 218.910156 96.320312 L 218.835938 96.304688 C 215.101562 95.277344 214.164062 96.019531 213.148438 99.6875 C 213.050781 100.078125 212.914062 100.636719 212.757812 101.300781 L 212.523438 102.1875 C 212.09375 104.023438 210.351562 106.171875 209.003906 107.613281 C 208.929688 107.703125 208.828125 107.800781 208.75 107.882812 C 207.753906 107.335938 206.71875 107.097656 205.722656 107.097656 C 204.648438 107.109375 203.652344 107.402344 202.753906 107.898438 C 202.027344 108.289062 201.347656 108.816406 200.742188 109.429688 L 200.703125 109.46875 L 167.679688 143.671875 L 164.515625 146.933594 C 163.734375 147.75 163.167969 148.671875 162.773438 149.636719 C 162.640625 150.019531 162.542969 150.40625 162.441406 150.789062 C 162.148438 152.132812 162.226562 153.53125 162.621094 154.828125 C 162.675781 154.996094 162.738281 155.160156 162.773438 155.3125 C 163.203125 156.433594 163.867188 157.445312 164.730469 158.285156 C 165.546875 159.066406 166.527344 159.703125 167.679688 160.089844 C 167.972656 160.1875 168.285156 160.277344 168.597656 160.34375 L 168.617188 160.34375 C 171.898438 161.027344 174.339844 159.3125 176.433594 157.847656 C 176.921875 157.496094 177.273438 157.171875 177.507812 156.96875 C 177.527344 157.320312 177.46875 157.757812 177.371094 158.226562 L 177.371094 158.234375 C 177.273438 158.746094 177.117188 159.269531 176.921875 159.800781 C 176.570312 160.726562 175.609375 161.824219 174.363281 162.851562 C 172.933594 164.027344 171.195312 165.054688 169.515625 165.65625 C 168.949219 165.871094 168.328125 166.117188 167.679688 166.398438 C 166.078125 167.089844 164.355469 167.996094 162.773438 169.09375 C 162.441406 169.335938 162.09375 169.585938 161.757812 169.851562 C 159.765625 171.414062 158.125 173.320312 157.441406 175.546875 C 157.265625 176.136719 157.105469 176.734375 156.910156 177.429688 C 155.894531 181.15625 154.003906 188.195312 150.328125 192.957031 C 150.152344 193.183594 149.972656 193.40625 149.804688 193.621094 C 149.273438 194.253906 148.6875 194.84375 148.082031 195.371094 C 147.457031 195.886719 146.8125 196.347656 146.109375 196.726562 C 145.796875 196.894531 145.464844 197.058594 145.113281 197.195312 C 139.328125 199.527344 132.957031 198.601562 127.234375 195.742188 C 123.621094 193.933594 120.253906 191.386719 117.464844 188.410156 C 114.667969 185.453125 112.441406 182.054688 111.015625 178.582031 C 109.0625 173.75 108.75 168.761719 110.839844 164.554688 C 111.152344 163.9375 111.484375 163.355469 111.835938 162.808594 C 112.890625 161.136719 114.160156 159.742188 115.550781 158.542969 C 119.300781 155.332031 123.972656 153.546875 128.25 151.90625 C 129.539062 151.425781 130.789062 150.949219 132.058594 150.410156 C 139.507812 147.304688 141.910156 142.308594 144.722656 136.433594 C 144.859375 136.167969 144.976562 135.894531 145.15625 135.535156 C 145.328125 135.179688 145.542969 134.730469 145.859375 134.128906 C 147.109375 131.613281 148.570312 129.378906 150.058594 127.578125 C 150.292969 127.304688 150.527344 127.042969 150.761719 126.789062 C 152.460938 124.894531 154.0625 123.628906 155.296875 123.226562 Z M 155.292969 123.222656 " fill-opacity="1" fill-rule="evenodd"/></g><path fill="#ed5b2d" d="M 157.890625 108.011719 L 162.773438 108.011719 L 162.773438 86.785156 C 148.296875 87.351562 135.203125 93.363281 125.492188 102.8125 L 125.492188 109.976562 C 126.429688 108.863281 127.429688 107.800781 128.441406 106.773438 C 136.222656 99.003906 146.464844 93.695312 157.890625 92.117188 Z M 157.890625 108.011719 " fill-opacity="1" fill-rule="evenodd"/><path fill="#291b25" d="M 188.859375 138.652344 L 193.746094 138.652344 L 193.746094 182.324219 L 188.859375 182.324219 Z M 188.859375 138.652344 " fill-opacity="1" fill-rule="evenodd"/><path fill="#ed5b2d" d="M 198.046875 120.945312 L 202.929688 120.945312 L 202.929688 163.097656 L 198.046875 163.097656 Z M 198.046875 120.945312 " fill-opacity="1" fill-rule="evenodd"/><g clip-path="url(#8b84db43f5)"><path fill="#ed5b2d" d="M 185.207031 219.027344 L 185.207031 177.414062 L 180.324219 177.414062 L 180.324219 192.789062 C 177.8125 193.5625 175.21875 194.148438 172.5625 194.53125 L 172.5625 179.613281 L 167.679688 179.613281 L 167.679688 199.890625 C 172.03125 199.695312 176.265625 199.015625 180.324219 197.882812 L 180.324219 219.027344 Z M 185.207031 219.027344 " fill-opacity="1" fill-rule="evenodd"/></g><path fill="#291b25" d="M 137.824219 163.457031 C 137.824219 161.976562 138.410156 160.636719 139.382812 159.667969 C 140.363281 158.707031 141.691406 158.097656 143.175781 158.097656 C 143.839844 158.097656 144.484375 158.214844 145.070312 158.441406 C 145.796875 158.714844 146.441406 159.128906 146.96875 159.667969 C 147.949219 160.632812 148.550781 161.984375 148.550781 163.457031 C 148.550781 164.9375 147.949219 166.277344 146.96875 167.253906 C 146.421875 167.785156 145.777344 168.222656 145.03125 168.492188 C 144.449219 168.695312 143.820312 168.816406 143.175781 168.816406 C 141.691406 168.816406 140.363281 168.21875 139.386719 167.253906 C 138.410156 166.285156 137.824219 164.9375 137.824219 163.457031 Z M 149.878906 171.207031 C 150.070312 171.050781 150.25 170.886719 150.425781 170.707031 C 152.300781 168.84375 153.433594 166.285156 153.433594 163.457031 C 153.433594 160.636719 152.300781 158.058594 150.425781 156.210938 C 150.265625 156.054688 150.113281 155.902344 149.957031 155.757812 C 148.609375 154.574219 146.925781 153.738281 145.089844 153.390625 C 144.464844 153.265625 143.820312 153.207031 143.175781 153.207031 C 140.34375 153.207031 137.78125 154.355469 135.925781 156.210938 C 134.070312 158.074219 132.917969 160.632812 132.917969 163.457031 C 132.917969 166.277344 134.070312 168.84375 135.925781 170.699219 L 135.925781 170.707031 C 137.78125 172.5625 140.34375 173.703125 143.175781 173.703125 C 143.800781 173.703125 144.40625 173.65625 145.015625 173.546875 C 146.851562 173.207031 148.53125 172.386719 149.878906 171.207031 Z M 149.878906 171.207031 " fill-opacity="1" fill-rule="evenodd"/><path fill="#291b25" d="M 136.296875 181.449219 L 124.671875 168.875 L 120.644531 172.613281 L 132.273438 185.175781 Z M 136.296875 181.449219 " fill-opacity="1" fill-rule="evenodd"/><g fill="#291b25" fill-opacity="1"><g transform="translate(65.664118, 264.685235)"><g><path d="M 15.34375 -32.34375 C 19.476562 -32.34375 21.546875 -30.144531 21.546875 -25.75 L 21.546875 -6.59375 C 21.546875 -2.195312 19.476562 0 15.34375 0 L 2.5 0 L 2.5 -32.34375 Z M 14.546875 -5.796875 L 14.546875 -26.59375 C 14.546875 -26.863281 14.453125 -27.097656 14.265625 -27.296875 C 14.085938 -27.492188 13.863281 -27.59375 13.59375 -27.59375 L 9.5 -27.59375 L 9.5 -4.796875 L 13.59375 -4.796875 C 13.863281 -4.796875 14.085938 -4.894531 14.265625 -5.09375 C 14.453125 -5.300781 14.546875 -5.535156 14.546875 -5.796875 Z M 14.546875 -5.796875 "/></g></g></g><g fill="#291b25" fill-opacity="1"><g transform="translate(95.760378, 264.685235)"><g><path d="M 14.046875 -32.34375 L 21.046875 -32.34375 L 21.046875 -6.09375 C 21.046875 -1.695312 18.976562 0.5 14.84375 0.5 L 8.65625 0.5 C 4.519531 0.5 2.453125 -1.695312 2.453125 -6.09375 L 2.453125 -32.34375 L 9.453125 -32.34375 L 9.453125 -5.5 C 9.453125 -5.226562 9.539062 -4.992188 9.71875 -4.796875 C 9.90625 -4.597656 10.132812 -4.5 10.40625 -4.5 L 13.09375 -4.5 C 13.363281 -4.5 13.585938 -4.597656 13.765625 -4.796875 C 13.953125 -4.992188 14.046875 -5.226562 14.046875 -5.5 Z M 14.046875 -32.34375 "/></g></g></g><g fill="#291b25" fill-opacity="1"><g transform="translate(124.956777, 264.685235)"><g><path d="M 21.25 -32.34375 L 14.296875 -11.796875 L 14.296875 0 L 7.296875 0 L 7.296875 -11.796875 L 0.34375 -32.34375 L 6.953125 -32.34375 L 10.796875 -18.84375 L 14.65625 -32.34375 Z M 21.25 -32.34375 "/></g></g></g><g fill="#291b25" fill-opacity="1"><g transform="translate(152.55343, 264.685235)"><g/></g></g><g fill="#291b25" fill-opacity="1"><g transform="translate(168.501887, 264.685235)"><g><path d="M 9.5 -12.703125 L 9.5 0 L 2.5 0 L 2.5 -32.34375 L 9.5 -32.34375 L 9.5 -18.796875 L 15.046875 -18.796875 L 15.046875 -32.34375 L 22.046875 -32.34375 L 22.046875 0 L 15.046875 0 L 15.046875 -12.703125 Z M 9.5 -12.703125 "/></g></g></g><g fill="#291b25" fill-opacity="1"><g transform="translate(198.898102, 264.685235)"><g><path d="M 14.046875 -32.34375 L 21.046875 -32.34375 L 21.046875 -6.09375 C 21.046875 -1.695312 18.976562 0.5 14.84375 0.5 L 8.65625 0.5 C 4.519531 0.5 2.453125 -1.695312 2.453125 -6.09375 L 2.453125 -32.34375 L 9.453125 -32.34375 L 9.453125 -5.5 C 9.453125 -5.226562 9.539062 -4.992188 9.71875 -4.796875 C 9.90625 -4.597656 10.132812 -4.5 10.40625 -4.5 L 13.09375 -4.5 C 13.363281 -4.5 13.585938 -4.597656 13.765625 -4.796875 C 13.953125 -4.992188 14.046875 -5.226562 14.046875 -5.5 Z M 14.046875 -32.34375 "/></g></g></g><g fill="#291b25" fill-opacity="1"><g transform="translate(228.094496, 264.685235)"><g><path d="M 21.25 -32.34375 L 14.296875 -11.796875 L 14.296875 0 L 7.296875 0 L 7.296875 -11.796875 L 0.34375 -32.34375 L 6.953125 -32.34375 L 10.796875 -18.84375 L 14.65625 -32.34375 Z M 21.25 -32.34375 "/></g></g></g><g fill="#291b25" fill-opacity="1"><g transform="translate(255.691144, 264.685235)"><g><path d="M 21.046875 0 L 14.046875 0 L 14.046875 -26.84375 C 14.046875 -27.113281 13.953125 -27.347656 13.765625 -27.546875 C 13.585938 -27.742188 13.363281 -27.84375 13.09375 -27.84375 L 10.40625 -27.84375 C 10.132812 -27.84375 9.90625 -27.742188 9.71875 -27.546875 C 9.539062 -27.347656 9.453125 -27.113281 9.453125 -26.84375 L 9.453125 0 L 2.453125 0 L 2.453125 -26.25 C 2.453125 -30.644531 4.519531 -32.84375 8.65625 -32.84375 L 14.84375 -32.84375 C 18.976562 -32.84375 21.046875 -30.644531 21.046875 -26.25 Z M 21.046875 0 "/></g></g></g><g fill="#291b25" fill-opacity="1"><g transform="translate(284.787562, 264.685235)"><g><path d="M 9.5 -12.703125 L 9.5 0 L 2.5 0 L 2.5 -32.34375 L 9.5 -32.34375 L 9.5 -18.796875 L 15.046875 -18.796875 L 15.046875 -32.34375 L 22.046875 -32.34375 L 22.046875 0 L 15.046875 0 L 15.046875 -12.703125 Z M 9.5 -12.703125 "/></g></g></g><g fill="#ed5b2d" fill-opacity="1"><g transform="translate(159.369075, 305.342646)"><g><path d="M 7.265625 -1.964844 L 6.703125 -1.964844 L 5.257812 -9.886719 L 0.839844 -9.886719 L 0.839844 0 L 3.085938 0 L 3.085938 -7.925781 L 3.4375 -7.925781 L 4.949219 0 L 9.019531 0 L 10.53125 -7.925781 L 10.882812 -7.925781 L 10.882812 0 L 13.128906 0 L 13.128906 -9.886719 L 8.710938 -9.886719 Z M 7.265625 -1.964844 "/></g></g></g><g fill="#ed5b2d" fill-opacity="1"><g transform="translate(174.030196, 305.342646)"><g><path d="M 0.5625 -3.675781 C 0.5625 -1.207031 2.089844 0.140625 5.019531 0.140625 C 7.953125 0.140625 9.496094 -1.207031 9.496094 -3.675781 L 9.496094 -9.886719 L 7.25 -9.886719 L 7.25 -4.671875 C 7.25 -2.902344 7.082031 -1.824219 5.019531 -1.824219 C 2.960938 -1.824219 2.804688 -2.902344 2.804688 -4.671875 L 2.804688 -9.886719 L 0.5625 -9.886719 Z M 0.5625 -3.675781 "/></g></g></g><g fill="#ed5b2d" fill-opacity="1"><g transform="translate(184.780963, 305.342646)"><g><path d="M 9.550781 -2.722656 C 9.550781 -4.78125 6.761719 -5.566406 4.9375 -6.183594 C 3.351562 -6.71875 3.113281 -6.886719 3.113281 -7.335938 C 3.113281 -7.839844 3.746094 -8.0625 4.753906 -8.0625 C 5.976562 -8.0625 6.898438 -7.726562 6.898438 -6.523438 L 9.144531 -6.523438 C 9.144531 -8.484375 7.785156 -10.027344 4.753906 -10.027344 C 2.203125 -10.027344 0.871094 -9.101562 0.871094 -7.417969 C 0.871094 -5.484375 2.566406 -4.921875 4.65625 -4.222656 C 6.101562 -3.730469 7.308594 -3.40625 7.308594 -2.691406 C 7.308594 -2.160156 6.832031 -1.824219 5.386719 -1.824219 C 3.421875 -1.824219 2.664062 -2.300781 2.664062 -3.816406 L 0.421875 -3.816406 C 0.421875 -1.316406 1.753906 0.140625 5.316406 0.140625 C 8.359375 0.140625 9.550781 -1.023438 9.550781 -2.722656 Z M 9.550781 -2.722656 "/></g></g></g><g fill="#ed5b2d" fill-opacity="1"><g transform="translate(195.447636, 305.342646)"><g><path d="M 7.433594 -9.886719 L 0.703125 -9.886719 L 0.703125 -7.925781 L 2.945312 -7.925781 L 2.945312 -1.964844 L 0.703125 -1.964844 L 0.703125 0 L 7.433594 0 L 7.433594 -1.964844 L 5.1875 -1.964844 L 5.1875 -7.925781 L 7.433594 -7.925781 Z M 7.433594 -9.886719 "/></g></g></g><g fill="#ed5b2d" fill-opacity="1"><g transform="translate(204.278266, 305.342646)"><g><path d="M 0.703125 -4.949219 C 0.703125 -2.0625 2.636719 0.140625 5.777344 0.140625 C 8.542969 0.140625 10.363281 -1.375 10.660156 -3.828125 L 8.414062 -3.828125 C 8.191406 -2.523438 7.152344 -1.824219 5.804688 -1.824219 C 4.082031 -1.824219 2.945312 -2.902344 2.945312 -4.949219 C 2.945312 -6.984375 4.082031 -8.0625 5.804688 -8.0625 C 7.152344 -8.0625 8.191406 -7.378906 8.414062 -6.074219 L 10.660156 -6.074219 C 10.363281 -8.511719 8.542969 -10.027344 5.777344 -10.027344 C 2.636719 -10.027344 0.703125 -7.824219 0.703125 -4.949219 Z M 0.703125 -4.949219 "/></g></g></g></svg>